<svg width="48" height="48" viewBox="0 0 48 48" fill="none" xmlns="http://www.w3.org/2000/svg">
<rect width="48" height="48" rx="24" fill="#D8AA53"/>
<path d="M24.3199 14.6104C24.874 15.4201 25.5054 16.0573 26.2141 16.5221C26.3641 16.6215 26.478 16.7762 26.5358 16.959C26.5935 17.1417 26.5914 17.3408 26.5298 17.5211C26.1755 18.5848 25.4345 20.36 25.7567 21.5746C26.6587 24.9093 29.3841 23.3569 30.6663 21.5099C30.6946 21.4697 30.7331 21.4399 30.7766 21.4241C30.8202 21.4083 30.867 21.4073 30.9111 21.4211C30.9552 21.4349 30.9947 21.463 31.0245 21.5019C31.0543 21.5407 31.0731 21.5885 31.0786 21.6392C31.4394 25.5633 36.0913 26.6773 36.4263 22.013C36.4483 21.7068 36.5365 21.411 36.6835 21.1507C36.8305 20.8904 37.0318 20.6734 37.2703 20.5181L39.5447 19.0519C39.5967 19.0182 39.6565 19.0024 39.7165 19.0067C39.7765 19.0109 39.834 19.035 39.8816 19.0759C39.9293 19.1167 39.965 19.1725 39.9842 19.2361C40.0034 19.2996 40.0051 19.3681 39.9893 19.4328L37.8824 28.2513C37.8614 28.3322 37.8174 28.4034 37.7569 28.454C37.6965 28.5045 37.6229 28.5318 37.5474 28.5316H10.5319C10.4281 28.5312 10.3274 28.4931 10.2448 28.423C10.1623 28.353 10.1024 28.2549 10.0744 28.1435L7.99976 19.6197V18.9441L10.9893 20.7121C11.1461 20.8046 11.2641 20.962 11.3179 21.1505L12.0073 23.745C12.0771 24.0123 12.2104 24.2535 12.393 24.4433C12.5755 24.6331 12.8007 24.7643 13.0446 24.8231C15.2696 25.3549 16.5668 24.3176 16.9362 21.7111C16.9431 21.658 16.9636 21.6083 16.9951 21.5678C17.0266 21.5273 17.0678 21.4977 17.114 21.4826C17.1601 21.4674 17.2091 21.4674 17.2553 21.4824C17.3014 21.4974 17.3428 21.5269 17.3743 21.5674C18.2033 22.6215 18.8756 23.2467 19.391 23.4432C19.624 23.5331 19.8709 23.5626 20.1126 23.5294C22.5094 23.1916 22.6512 20.8702 21.9167 18.8435C21.7148 18.2973 21.5687 17.799 21.4785 17.3486C21.4548 17.2287 21.4602 17.1034 21.4941 16.9849C21.5279 16.8664 21.5892 16.7589 21.6718 16.673L23.7207 14.6104H24.3199Z" fill="white"/>
<path d="M37.6119 29.7321L37.2575 31.2054C37.2348 31.2985 37.1853 31.3806 37.1166 31.439C37.0479 31.4975 36.9638 31.5291 36.8774 31.5289H11.1504C11.0668 31.5284 10.9854 31.4982 10.9182 31.4426C10.851 31.3871 10.8014 31.309 10.7767 31.2198L10.3837 29.7465C10.3656 29.6811 10.3615 29.6118 10.3717 29.5443C10.3819 29.4768 10.4061 29.4129 10.4424 29.3577C10.4788 29.3025 10.5262 29.2575 10.5809 29.2265C10.6356 29.1954 10.696 29.179 10.7574 29.1787H37.2317C37.2922 29.1786 37.3519 29.194 37.4062 29.2238C37.4604 29.2536 37.5078 29.2969 37.5446 29.3505C37.5814 29.404 37.6066 29.4663 37.6182 29.5325C37.6299 29.5987 37.6277 29.667 37.6119 29.7321Z" fill="white"/>
<path d="M36.4006 32.0532H11.6724C11.4268 32.0532 11.2278 32.2752 11.2278 32.5491V32.8941C11.2278 33.168 11.4268 33.39 11.6724 33.39H36.4006C36.6461 33.39 36.8452 33.168 36.8452 32.8941V32.5491C36.8452 32.2752 36.6461 32.0532 36.4006 32.0532Z" fill="white"/>
</svg>
